<?xml version="1.0" encoding="UTF-8"?>
<!DOCTYPE svg PUBLIC "-//W3C//DTD SVG 1.1//EN" "http://www.w3.org/Graphics/SVG/1.1/DTD/svg11.dtd">
<!-- Creator: CorelDRAW X5 -->
<svg xmlns="http://www.w3.org/2000/svg" xml:space="preserve" width="53.2156mm" height="46.2662mm" style="shape-rendering:geometricPrecision; text-rendering:geometricPrecision; image-rendering:optimizeQuality; fill-rule:evenodd; clip-rule:evenodd"
viewBox="0 0 706 614"
 xmlns:xlink="http://www.w3.org/1999/xlink">
 <defs>
  <style type="text/css">
   <![CDATA[
    .str0 {stroke:#373435;stroke-width:2.65421}
    .str1 {stroke:#201E1E;stroke-width:2.65421}
    .fil1 {fill:#201E1E}
    .fil0 {fill:#FEFEFE}
   ]]>
  </style>
 </defs>
 <g id="Capa_x0020_1">
  <metadata id="CorelCorpID_0Corel-Layer"/>
  <rect class="fil0 str0" x="23" y="35" width="663" height="537"/>
  <path class="fil1" d="M0 0l706 0 0 614 -706 0 0 -614zm351 198c113,0 211,62 263,154 -52,92 -150,154 -263,154 -113,0 -211,-62 -263,-154 52,-92 150,-154 263,-154zm-258 61c-6,8 -18,9 -25,3 -8,-6 -9,-18 -3,-25 33,-42 76,-76 126,-100 48,-23 103,-36 160,-36 58,0 112,13 160,36 50,24 93,58 126,100 6,8 5,19 -3,25 -8,6 -19,5 -25,-3 -29,-37 -68,-68 -113,-89 -43,-20 -93,-32 -145,-32 -52,0 -102,12 -145,32 -45,21 -84,52 -113,89l0 0z"/>
  <path class="fil1 str1" d="M351 233c33,0 62,13 83,35 21,21 35,51 35,83 0,33 -13,62 -35,83 -21,21 -51,35 -83,35 -33,0 -62,-13 -83,-35 -21,-21 -35,-51 -35,-83 0,-33 13,-62 35,-83 21,-21 51,-35 83,-35zm34 13l-34 105 104 -37c-6,-16 -15,-30 -26,-41 -12,-12 -27,-22 -44,-27z"/>
 </g>
</svg>
