<?xml version="1.0" encoding="UTF-8"?>
<!DOCTYPE svg PUBLIC "-//W3C//DTD SVG 1.1//EN" "http://www.w3.org/Graphics/SVG/1.1/DTD/svg11.dtd">
<!-- Creator: CorelDRAW X5 -->
<svg xmlns="http://www.w3.org/2000/svg" xml:space="preserve" width="108.987mm" height="38.6058mm" style="shape-rendering:geometricPrecision; text-rendering:geometricPrecision; image-rendering:optimizeQuality; fill-rule:evenodd; clip-rule:evenodd"
viewBox="0 0 8550 3029"
 xmlns:xlink="http://www.w3.org/1999/xlink">
 <defs>
  <style type="text/css">
   <![CDATA[
    .str0 {stroke:#373435;stroke-width:15.6908}
    .str1 {stroke:#201E1E;stroke-width:15.6908}
    .fil1 {fill:#201E1E}
    .fil0 {fill:#FEFEFE}
    .fil2 {fill:#201E1E;fill-rule:nonzero}
   ]]>
  </style>
 </defs>
 <g id="Capa_x0020_1">
  <metadata id="CorelCorpID_0Corel-Layer"/>
  <rect class="fil0 str0" x="115" y="175" width="3271" height="2649"/>
  <path class="fil1" d="M0 0l3484 0 0 3029 -3484 0 0 -3029zm1732 974c557,0 1042,306 1297,758 -255,452 -740,758 -1297,758 -557,0 -1042,-306 -1297,-758 255,-452 740,-758 1297,-758zm-1274 302c-30,39 -86,46 -126,15 -39,-30 -46,-86 -15,-126 161,-206 375,-375 622,-492 238,-112 507,-175 792,-175 285,0 554,64 792,175 247,117 461,286 622,492 30,39 24,95 -15,126 -39,30 -95,24 -126,-15 -145,-184 -336,-337 -558,-441 -214,-101 -457,-158 -716,-158 -258,0 -501,57 -716,158 -222,104 -413,256 -558,441l2 0z"/>
  <path class="fil1 str1" d="M1732 1151c161,0 306,65 411,170 105,105 170,250 170,411 0,161 -65,306 -170,411 -105,105 -250,170 -411,170 -161,0 -306,-65 -411,-170 -105,-105 -170,-250 -170,-411 0,-161 65,-306 170,-411 105,-105 250,-170 411,-170zm167 62l-167 518 514 -182c-27,-77 -72,-146 -129,-203 -60,-60 -135,-107 -218,-134z"/>
  <path class="fil2" d="M4786 18l0 236 -20 0c-15,-62 -42,-109 -83,-142 -40,-33 -86,-49 -137,-49 -43,0 -82,12 -117,37 -36,25 -62,56 -78,96 -21,51 -32,107 -32,169 0,61 8,117 23,167 15,50 39,88 72,114 33,26 75,38 128,38 43,0 82,-9 118,-28 36,-19 73,-51 113,-97l0 59c-38,40 -78,69 -119,87 -42,18 -90,27 -145,27 -73,0 -137,-15 -194,-44 -56,-29 -100,-71 -131,-126 -31,-55 -46,-113 -46,-175 0,-65 17,-127 51,-185 34,-58 80,-104 138,-136 58,-32 119,-48 184,-48 48,0 99,10 152,31 31,12 50,18 59,18 11,0 20,-4 28,-12 8,-8 13,-20 15,-37l20 0z"/>
  <path id="1" class="fil2" d="M5492 476l-26 239 -606 0 0 -19 23 0c20,0 36,-4 48,-11 9,-5 15,-13 20,-24 4,-8 5,-29 5,-63l0 -449c0,-35 -2,-57 -5,-65 -4,-9 -11,-16 -22,-23 -11,-7 -26,-10 -45,-10l-23 0 0 -19 364 0 0 19 -30 0c-20,0 -36,3 -48,10 -9,5 -15,13 -21,24 -4,8 -5,29 -5,63l0 434c0,35 2,57 6,67 4,10 12,17 24,21 8,3 29,4 61,4l57 0c36,0 66,-6 91,-19 24,-13 45,-33 62,-60 18,-27 34,-68 50,-122l21 0z"/>
  <path id="12" class="fil2" d="M5906 696l0 19 -357 0 0 -19 23 0c20,0 36,-4 48,-11 9,-5 15,-13 20,-24 4,-8 6,-29 6,-63l0 -449c0,-35 -2,-57 -6,-65 -4,-9 -11,-16 -22,-23 -11,-7 -26,-10 -45,-10l-23 0 0 -19 357 0 0 19 -23 0c-20,0 -36,3 -48,10 -9,5 -16,13 -21,24 -4,8 -5,29 -5,63l0 449c0,35 2,57 6,65 4,9 12,16 23,23 11,7 26,10 45,10l23 0z"/>
  <path id="123" class="fil2" d="M6186 33l336 423 0 -293c0,-41 -6,-68 -18,-83 -16,-19 -43,-29 -81,-28l0 -19 225 0 0 19c-29,4 -48,8 -58,14 -10,6 -18,15 -23,29 -5,13 -8,36 -8,68l0 568 -17 0 -461 -568 0 434c0,39 9,66 27,79 18,14 38,21 61,21l16 0 0 19 -242 0 0 -19c38,0 64,-8 78,-23 15,-15 22,-41 22,-77l0 -481 -15 -18c-14,-18 -27,-30 -38,-36 -11,-6 -27,-9 -48,-9l0 -19 242 0z"/>
  <path id="1234" class="fil2" d="M7051 696l0 19 -357 0 0 -19 23 0c20,0 36,-4 48,-11 9,-5 15,-13 20,-24 4,-8 6,-29 6,-63l0 -449c0,-35 -2,-57 -6,-65 -4,-9 -11,-16 -22,-23 -11,-7 -26,-10 -45,-10l-23 0 0 -19 357 0 0 19 -23 0c-20,0 -36,3 -48,10 -9,5 -16,13 -21,24 -4,8 -5,29 -5,63l0 449c0,35 2,57 6,65 4,9 12,16 23,23 11,7 26,10 45,10l23 0z"/>
  <path id="12345" class="fil2" d="M7762 18l0 236 -20 0c-15,-62 -42,-109 -83,-142 -40,-33 -86,-49 -137,-49 -43,0 -82,12 -117,37 -36,25 -62,56 -78,96 -21,51 -32,107 -32,169 0,61 8,117 23,167 15,50 39,88 72,114 33,26 75,38 128,38 43,0 82,-9 118,-28 36,-19 73,-51 113,-97l0 59c-38,40 -78,69 -119,87 -42,18 -90,27 -145,27 -73,0 -137,-15 -194,-44 -56,-29 -100,-71 -131,-126 -31,-55 -46,-113 -46,-175 0,-65 17,-127 51,-185 34,-58 80,-104 138,-136 58,-32 119,-48 184,-48 48,0 99,10 152,31 31,12 50,18 59,18 11,0 20,-4 28,-12 8,-8 13,-20 15,-37l20 0z"/>
  <path id="123456" class="fil2" d="M8247 521l-241 0 -29 66c-9,22 -14,40 -14,55 0,19 8,33 23,42 9,5 31,9 67,12l0 19 -227 0 0 -19c24,-4 45,-14 60,-31 16,-16 35,-51 58,-103l244 -544 10 0 246 559c24,53 43,86 58,100 12,10 28,16 48,18l0 19 -330 0 0 -19 14 0c26,0 45,-4 56,-11 7,-5 11,-13 11,-23 0,-6 -1,-12 -3,-19 -1,-3 -6,-16 -15,-38l-36 -85zm-17 -37l-101 -235 -105 235 206 0z"/>
  <path class="fil2" d="M4112 1856l0 -19 23 0c20,0 35,-3 45,-9 11,-6 18,-15 23,-25 3,-7 5,-28 5,-63l0 -449c0,-35 -2,-57 -6,-65 -4,-9 -11,-16 -22,-23 -11,-7 -26,-10 -45,-10l-23 0 0 -19 305 0c82,0 147,11 197,33 61,27 107,68 138,123 31,55 47,117 47,187 0,48 -8,92 -23,133 -15,41 -35,74 -60,100 -25,26 -53,48 -85,64 -32,16 -71,28 -117,37 -20,4 -53,6 -97,6l-305 0zm260 -643l0 532c0,28 1,45 4,52 3,6 7,11 14,15 9,5 22,8 39,8 56,0 99,-19 128,-57 40,-52 60,-132 60,-240 0,-88 -14,-157 -41,-210 -22,-41 -50,-69 -84,-83 -24,-10 -64,-15 -120,-15z"/>
  <path id="1" class="fil2" d="M5123 1213l0 278 14 0c43,0 74,-14 94,-41 19,-27 32,-67 37,-120l19 0 0 357 -19 0c-4,-39 -13,-71 -25,-96 -13,-25 -28,-42 -45,-50 -17,-8 -42,-13 -74,-13l0 192c0,38 2,60 5,69 3,8 9,15 18,21 9,5 23,8 42,8l41 0c64,0 115,-15 153,-44 38,-29 66,-74 83,-135l19 0 -31 217 -589 0 0 -19 23 0c20,0 36,-4 48,-11 9,-5 15,-13 20,-24 4,-8 6,-29 6,-63l0 -449c0,-31 -1,-50 -3,-57 -3,-12 -10,-21 -19,-27 -13,-9 -30,-14 -52,-14l-23 0 0 -19 571 0 0 202 -19 0c-10,-49 -23,-85 -41,-106 -18,-21 -42,-37 -75,-47 -19,-6 -54,-9 -106,-9l-70 0z"/>
  <path id="12" class="fil2" d="M6184 1164c109,-4 197,28 265,95 68,67 102,152 102,253 0,87 -25,163 -76,228 -67,87 -162,131 -284,131 -123,0 -217,-42 -285,-125 -53,-66 -79,-144 -79,-234 0,-101 34,-186 103,-253 69,-68 154,-99 254,-95zm6 32c-62,0 -110,32 -142,96 -26,52 -40,127 -40,225 0,116 20,202 61,258 28,39 68,58 120,58 34,0 63,-8 87,-25 29,-21 52,-56 69,-103 16,-47 25,-108 25,-184 0,-90 -8,-158 -25,-202 -17,-45 -38,-76 -64,-95 -26,-18 -56,-28 -90,-28z"/>
  <path id="123" class="fil2" d="M6734 1192l0 -19 363 0 0 19 -22 0c-20,0 -36,3 -48,10 -8,5 -15,13 -20,24 -4,8 -6,29 -6,63l0 334c0,65 -7,113 -20,143 -13,30 -36,54 -70,74 -33,20 -73,30 -120,30 -57,0 -104,-15 -139,-45 -36,-30 -53,-64 -53,-100 0,-24 7,-42 22,-57 14,-15 32,-22 53,-22 20,0 38,7 51,20 14,13 21,29 21,48 0,9 -1,18 -4,25 -1,3 -7,12 -16,25 -9,14 -14,23 -14,29 0,9 4,16 13,22 13,9 29,14 50,14 14,0 26,-4 36,-11 9,-7 16,-19 20,-35 4,-15 6,-59 6,-130l0 -365c0,-35 -2,-57 -6,-65 -4,-9 -12,-16 -23,-23 -11,-7 -26,-10 -45,-10l-29 0z"/>
  <path id="1234" class="fil2" d="M7500 1164c109,-4 197,28 265,95 68,67 102,152 102,253 0,87 -25,163 -76,228 -67,87 -162,131 -284,131 -123,0 -217,-42 -285,-125 -53,-66 -79,-144 -79,-234 0,-101 34,-186 103,-253 69,-68 154,-99 254,-95zm6 32c-62,0 -110,32 -142,96 -26,52 -40,127 -40,225 0,116 20,202 61,258 28,39 68,58 120,58 34,0 63,-8 87,-25 29,-21 52,-56 69,-103 16,-47 25,-108 25,-184 0,-90 -8,-158 -25,-202 -17,-45 -38,-76 -64,-95 -26,-18 -56,-28 -90,-28z"/>
  <path id="12345" class="fil2" d="M8387 1158l6 227 -21 0c-10,-57 -33,-103 -72,-138 -38,-35 -79,-52 -123,-52 -34,0 -61,9 -81,27 -20,18 -30,39 -30,63 0,15 4,28 11,40 10,16 25,31 47,47 16,11 52,31 109,59 80,39 134,76 161,111 28,35 41,75 41,120 0,57 -22,106 -67,147 -44,41 -101,62 -169,62 -21,0 -42,-2 -61,-7 -19,-4 -43,-13 -72,-25 -16,-7 -29,-10 -40,-10 -9,0 -18,3 -28,10 -10,7 -18,17 -24,31l-19 0 0 -257 19 0c15,72 43,128 85,166 42,38 87,57 136,57 38,0 67,-10 90,-31 22,-20 33,-44 33,-71 0,-16 -4,-32 -13,-47 -9,-15 -21,-29 -39,-43 -18,-14 -48,-31 -93,-53 -62,-31 -107,-56 -134,-78 -27,-21 -48,-45 -63,-72 -15,-26 -22,-56 -22,-88 0,-54 20,-101 60,-139 40,-38 90,-57 151,-57 22,0 44,3 64,8 16,4 35,12 57,22 23,11 39,16 48,16 9,0 16,-3 21,-8 5,-5 10,-18 14,-39l15 0z"/>
  <path class="fil2" d="M4748 2314l0 185 -18 0c-11,-43 -23,-73 -36,-92 -13,-19 -31,-33 -54,-44 -13,-6 -35,-9 -67,-9l-51 0 0 526c0,35 2,57 6,65 4,9 12,16 23,23 11,7 27,10 46,10l23 0 0 19 -357 0 0 -19 23 0c20,0 36,-4 48,-11 9,-5 16,-13 21,-24 4,-8 6,-29 6,-63l0 -526 -49 0c-46,0 -79,10 -100,29 -29,27 -48,66 -55,116l-19 0 0 -185 612 0z"/>
  <path id="1" class="fil2" d="M5137 2802l-241 0 -29 66c-9,22 -14,40 -14,55 0,19 8,33 23,42 9,5 31,9 67,12l0 19 -227 0 0 -19c24,-4 45,-14 60,-31 16,-16 35,-51 58,-103l244 -544 10 0 246 559c24,53 43,86 58,100 12,10 28,16 48,18l0 19 -330 0 0 -19 14 0c26,0 45,-4 56,-11 7,-5 11,-13 11,-23 0,-6 -1,-12 -3,-19 -1,-3 -6,-16 -15,-38l-36 -85zm-17 -37l-101 -235 -105 235 206 0z"/>
  <path id="12" class="fil2" d="M5709 2314l336 423 0 -293c0,-41 -6,-68 -18,-83 -16,-19 -43,-29 -81,-28l0 -19 225 0 0 19c-29,4 -48,8 -58,14 -10,6 -18,15 -23,29 -5,13 -8,36 -8,68l0 568 -17 0 -461 -568 0 434c0,39 9,66 27,79 18,14 38,21 61,21l16 0 0 19 -242 0 0 -19c38,0 64,-8 78,-23 15,-15 22,-41 22,-77l0 -481 -15 -18c-14,-18 -27,-30 -38,-36 -11,-6 -27,-9 -48,-9l0 -19 242 0z"/>
  <path id="123" class="fil2" d="M6210 2996l0 -19 23 0c20,0 35,-3 45,-9 11,-6 18,-15 23,-25 3,-7 5,-28 5,-63l0 -449c0,-35 -2,-57 -6,-65 -4,-9 -11,-16 -22,-23 -11,-7 -26,-10 -45,-10l-23 0 0 -19 305 0c82,0 147,11 197,33 61,27 107,68 138,123 31,55 47,117 47,187 0,48 -8,92 -23,133 -15,41 -35,74 -60,100 -25,26 -53,48 -85,64 -32,16 -71,28 -117,37 -20,4 -53,6 -97,6l-305 0zm260 -643l0 532c0,28 1,45 4,52 3,6 7,11 14,15 9,5 22,8 39,8 56,0 99,-19 128,-57 40,-52 60,-132 60,-240 0,-88 -14,-157 -41,-210 -22,-41 -50,-69 -84,-83 -24,-10 -64,-15 -120,-15z"/>
  <path id="1234" class="fil2" d="M7317 2978l0 19 -357 0 0 -19 23 0c20,0 36,-4 48,-11 9,-5 15,-13 20,-24 4,-8 6,-29 6,-63l0 -449c0,-35 -2,-57 -6,-65 -4,-9 -11,-16 -22,-23 -11,-7 -26,-10 -45,-10l-23 0 0 -19 357 0 0 19 -23 0c-20,0 -36,3 -48,10 -9,5 -16,13 -21,24 -4,8 -5,29 -5,63l0 449c0,35 2,57 6,65 4,9 12,16 23,23 11,7 26,10 45,10l23 0z"/>
  <path id="12345" class="fil2" d="M7991 2757l-26 239 -606 0 0 -19 23 0c20,0 36,-4 48,-11 9,-5 15,-13 20,-24 4,-8 5,-29 5,-63l0 -449c0,-35 -2,-57 -5,-65 -4,-9 -11,-16 -22,-23 -11,-7 -26,-10 -45,-10l-23 0 0 -19 364 0 0 19 -30 0c-20,0 -36,3 -48,10 -9,5 -15,13 -21,24 -4,8 -5,29 -5,63l0 434c0,35 2,57 6,67 4,10 12,17 24,21 8,3 29,4 61,4l57 0c36,0 66,-6 91,-19 24,-13 45,-33 62,-60 18,-27 34,-68 50,-122l21 0z"/>
 </g>
</svg>
