<?xml version="1.0" encoding="UTF-8"?>
<!DOCTYPE svg PUBLIC "-//W3C//DTD SVG 1.1//EN" "http://www.w3.org/Graphics/SVG/1.1/DTD/svg11.dtd">
<!-- Creator: CorelDRAW X5 -->
<svg xmlns="http://www.w3.org/2000/svg" xml:space="preserve" width="98.006mm" height="23.8051mm" style="shape-rendering:geometricPrecision; text-rendering:geometricPrecision; image-rendering:optimizeQuality; fill-rule:evenodd; clip-rule:evenodd"
viewBox="0 0 6804 1653"
 xmlns:xlink="http://www.w3.org/1999/xlink">
 <defs>
  <style type="text/css">
   <![CDATA[
    .fil2 {fill:#BDBFC1}
    .fil3 {fill:#FEFEFE}
    .fil0 {fill:black}
    .fil1 {fill:white}
   ]]>
  </style>
 </defs>
 <g id="Capa_x0020_1">
  <metadata id="CorelCorpID_0Corel-Layer"/>
  <path class="fil0" d="M931 804c0,-98 43,-214 98,-289 125,-171 345,-265 567,-208 36,9 88,29 118,46 118,64 213,167 256,296 76,229 0,481 -194,613 -21,14 -59,39 -81,48 -175,76 -335,67 -501,-23 -47,-25 -97,-69 -132,-109 -23,-27 -42,-52 -59,-83 -55,-102 -72,-165 -72,-290zm1237 -17c0,-162 -89,-344 -199,-456 -17,-18 -69,-58 -77,-70 14,1 19,5 33,10 82,28 136,54 211,91 78,39 146,81 214,130 66,48 89,68 147,116l170 170c12,15 28,32 39,47 -11,16 -79,93 -100,115l-111 104 -95 78c-119,91 -244,164 -382,222 -20,8 -106,44 -127,46 5,-8 60,-53 81,-74 53,-54 108,-139 139,-210 9,-21 20,-47 27,-72 31,-105 29,-143 29,-247zm-1944 39c29,-43 170,-188 211,-220 16,-13 30,-26 47,-39 33,-27 62,-49 98,-74 69,-50 135,-91 214,-130 75,-37 129,-63 211,-91 14,-5 20,-8 33,-10 -6,9 -61,53 -83,76 -122,127 -196,310 -196,488 0,106 33,248 86,335 35,57 86,137 138,181 10,8 50,41 55,49 -24,-2 -101,-35 -127,-46 -13,-5 -19,-6 -31,-12 -68,-32 -133,-66 -197,-105 -114,-68 -243,-172 -338,-266 -21,-21 -107,-115 -122,-137zm-224 0c10,15 19,29 30,43 11,14 21,26 33,41 35,45 69,79 100,116 13,16 18,22 33,36 142,141 302,284 482,376l93 49c363,182 727,210 1122,106 104,-27 281,-111 388,-169 2,-1 3,-2 5,-3 58,-35 118,-77 173,-116 34,-23 73,-58 105,-84 52,-42 163,-144 196,-187 8,-11 14,-15 23,-24l108 -130c15,-19 27,-35 40,-55 -43,-65 -81,-106 -128,-161 -8,-9 -8,-12 -17,-21 -7,-7 -11,-10 -17,-17 -14,-15 -10,-14 -32,-37 -98,-97 -192,-186 -308,-266 -9,-6 -15,-10 -23,-15 -78,-55 -161,-102 -247,-145 -34,-17 -64,-30 -98,-44 -359,-159 -834,-159 -1192,1 -35,16 -64,27 -98,45 -75,38 -112,59 -183,102l-44 29c-44,31 -81,56 -124,92l-153 132c-25,26 -48,48 -73,73 -49,48 -166,194 -193,234z"/>
  <path class="fil1" d="M1404 721c22,-22 44,-59 44,-103 0,-82 -60,-86 22,-86 156,0 289,132 289,289 0,242 -248,354 -414,272 -129,-64 -197,-195 -166,-330 4,-16 10,-27 11,-45 22,12 24,21 50,32 60,26 121,16 165,-29zm-473 83c0,126 16,188 72,290 17,32 36,56 59,83 35,41 85,84 132,109 167,89 326,99 501,23 22,-9 60,-34 81,-48 194,-133 269,-384 194,-613 -43,-129 -138,-232 -256,-296 -30,-16 -82,-37 -118,-46 -222,-57 -442,37 -567,208 -55,75 -98,191 -98,289z"/>
  <path class="fil1" d="M224 826c15,22 100,116 122,137 94,94 223,197 338,266 64,39 129,73 197,105 12,6 18,7 31,12 25,10 103,44 127,46 -5,-7 -45,-41 -55,-49 -52,-44 -104,-123 -138,-181 -53,-87 -86,-229 -86,-335 0,-179 74,-362 196,-488 22,-23 77,-68 83,-76 -14,1 -19,5 -33,10 -82,28 -136,54 -211,91 -79,39 -146,81 -214,130 -36,26 -65,48 -98,74 -16,13 -31,27 -47,39 -41,32 -183,177 -211,220z"/>
  <path class="fil1" d="M2168 787c0,104 2,143 -29,247 -7,24 -18,51 -27,72 -32,71 -86,156 -139,210 -21,21 -76,66 -81,74 21,-2 107,-37 127,-46 138,-58 263,-131 382,-222l95 -78 111 -104c21,-23 90,-100 100,-115 -11,-16 -27,-32 -39,-47l-170 -170c-58,-49 -81,-69 -147,-116 -68,-49 -136,-91 -214,-130 -75,-37 -129,-63 -211,-91 -14,-5 -20,-8 -33,-10 8,11 59,52 77,70 110,112 199,294 199,456z"/>
  <path class="fil0" d="M1448 619c0,43 -22,80 -44,103 -44,44 -105,55 -165,29 -26,-11 -28,-21 -50,-32 -1,18 -7,29 -11,45 -31,135 37,266 166,330 166,82 414,-30 414,-272 0,-156 -132,-289 -289,-289 -82,0 -22,5 -22,86z"/>
  <path class="fil2" d="M4804 804c0,-98 43,-214 98,-289 125,-171 345,-265 567,-208 36,9 88,29 118,46 118,64 213,167 256,296 76,229 0,481 -194,613 -21,14 -59,39 -81,48 -175,76 -335,67 -501,-23 -47,-25 -97,-69 -132,-109 -23,-27 -42,-52 -59,-83 -55,-102 -72,-165 -72,-290zm1237 -17c0,-162 -89,-344 -199,-456 -17,-18 -69,-58 -77,-70 14,1 19,5 33,10 82,28 136,54 211,91 78,39 146,81 214,130 66,48 89,68 147,116l170 170c12,15 28,32 39,47 -11,16 -79,93 -100,115l-111 104 -95 78c-119,91 -244,164 -382,222 -20,8 -106,44 -127,46 5,-8 60,-53 81,-74 53,-54 107,-139 139,-210 9,-21 20,-47 27,-72 31,-105 29,-143 29,-247zm-1944 39c29,-43 170,-188 211,-220 16,-13 30,-26 47,-39 33,-27 62,-49 98,-74 69,-50 135,-91 214,-130 75,-37 129,-63 211,-91 14,-5 20,-8 33,-10 -6,9 -61,53 -83,76 -122,127 -196,310 -196,488 0,106 33,248 86,335 35,57 86,137 138,181 10,8 50,41 55,49 -24,-2 -101,-35 -127,-46 -13,-5 -19,-6 -31,-12 -68,-32 -133,-66 -197,-105 -114,-68 -243,-172 -338,-266 -21,-21 -107,-115 -122,-137zm-224 0c10,15 19,29 30,43 11,14 21,26 33,41 35,45 69,79 100,116 13,16 18,22 33,36 142,141 302,284 482,376l93 49c363,182 727,210 1122,106 104,-27 281,-111 388,-169 2,-1 3,-2 5,-3 58,-35 118,-77 173,-116 34,-23 73,-58 105,-84 52,-42 163,-144 196,-187 8,-11 14,-15 23,-24l108 -130c14,-19 27,-35 40,-55 -43,-65 -81,-106 -128,-161 -8,-9 -8,-12 -17,-21 -7,-7 -11,-10 -17,-17 -14,-15 -10,-14 -32,-37 -98,-97 -192,-186 -308,-266 -9,-6 -15,-10 -23,-15 -78,-55 -161,-102 -247,-145 -34,-17 -64,-30 -98,-44 -359,-159 -834,-159 -1192,1 -36,16 -64,27 -98,45 -75,38 -112,59 -183,102l-44 29c-44,31 -81,56 -124,92l-153 132c-25,26 -48,48 -73,73 -49,48 -166,194 -193,234z"/>
  <path class="fil3" d="M5277 721c22,-22 44,-59 44,-103 0,-82 -60,-86 22,-86 156,0 289,132 289,289 0,242 -248,354 -414,272 -129,-64 -197,-195 -166,-330 4,-16 10,-27 11,-45 22,12 24,21 50,32 60,26 121,16 165,-29zm-473 83c0,126 16,188 72,290 17,32 36,56 59,83 35,41 85,84 132,109 167,89 326,99 501,23 22,-9 60,-34 81,-48 194,-133 269,-384 194,-613 -43,-129 -138,-232 -256,-296 -30,-16 -82,-37 -118,-46 -222,-57 -442,37 -567,208 -55,75 -98,191 -98,289z"/>
  <path class="fil3" d="M4097 826c15,22 100,116 122,137 94,94 223,197 338,266 64,39 129,73 197,105 12,6 18,7 31,12 25,10 103,44 127,46 -5,-7 -45,-41 -55,-49 -52,-44 -104,-123 -138,-181 -53,-87 -86,-229 -86,-335 0,-179 74,-362 196,-488 22,-23 77,-68 83,-76 -14,1 -19,5 -33,10 -82,28 -136,54 -211,91 -79,39 -146,81 -214,130 -36,26 -65,48 -98,74 -16,13 -31,27 -47,39 -41,32 -183,177 -211,220z"/>
  <path class="fil3" d="M6041 787c0,104 2,143 -29,247 -7,24 -18,51 -27,72 -32,71 -86,156 -139,210 -21,21 -76,66 -81,74 21,-2 107,-37 127,-46 138,-58 263,-131 382,-222l95 -78 111 -104c21,-23 90,-100 100,-115 -11,-16 -27,-32 -39,-47l-170 -170c-58,-49 -81,-69 -147,-116 -68,-49 -136,-91 -214,-130 -75,-37 -129,-63 -211,-91 -14,-5 -20,-8 -33,-10 8,11 59,52 77,70 110,112 199,294 199,456z"/>
  <path class="fil2" d="M5321 619c0,43 -22,80 -44,103 -44,44 -105,55 -165,29 -26,-11 -28,-21 -50,-32 -1,18 -7,29 -11,45 -31,135 37,266 166,330 166,82 414,-30 414,-272 0,-156 -132,-289 -289,-289 -82,0 -22,5 -22,86z"/>
 </g>
</svg>
